<svg xmlns="http://www.w3.org/2000/svg" version="1.1" xmlns:xlink="http://www.w3.org/1999/xlink" xmlns:svgjs="http://svgjs.dev/svgjs" width="2560" height="1440" preserveAspectRatio="none" viewBox="0 0 2560 1440"><g mask="url(&quot;#SvgjsMask13148&quot;)" fill="none"><rect width="2560" height="1440" x="0" y="0" fill="#0e2a47" style="--darkreader-inline-fill: #0b2239;" data-darkreader-inline-fill=""></rect><rect width="660.56" height="660.56" clip-path="url(&quot;#SvgjsClipPath13149&quot;)" x="1682.9" y="349.3" fill="url(&quot;#SvgjsPattern13150&quot;)" transform="rotate(114.22, 2013.18, 679.58)"></rect><rect width="432" height="432" clip-path="url(&quot;#SvgjsClipPath13151&quot;)" x="1994.15" y="337.73" fill="url(&quot;#SvgjsPattern13152&quot;)" transform="rotate(188.42, 2210.15, 553.73)"></rect><path d="M1448.11 1035.43 L1624.07 999.47L1460.2629457947357 941.6229457947359z" stroke="#d3b714" stroke-width="1.1" stroke-dasharray="2, 2" style="--darkreader-inline-stroke: #edd33c;" data-darkreader-inline-stroke=""></path><rect width="687.36" height="687.36" clip-path="url(&quot;#SvgjsClipPath13153&quot;)" x="2184.01" y="1036.78" fill="url(&quot;#SvgjsPattern13154&quot;)" transform="rotate(286.91, 2527.69, 1380.46)"></rect><rect width="732" height="732" clip-path="url(&quot;#SvgjsClipPath13155&quot;)" x="1440.95" y="650.89" fill="url(&quot;#SvgjsPattern13156&quot;)" transform="rotate(320.6, 1806.95, 1016.89)"></rect><rect width="393.04" height="393.04" clip-path="url(&quot;#SvgjsClipPath13157&quot;)" x="2356.55" y="348.85" fill="url(&quot;#SvgjsPattern13158&quot;)" transform="rotate(227.94, 2553.07, 545.37)"></rect><path d="M566.62 744.82 L380.08000000000004 1124.49L298.9158466642905 760.2208466642904z" fill="#d3b714" style="--darkreader-inline-fill: #a99210;" data-darkreader-inline-fill=""></path><path d="M1264.96 565.08a5.6 5.6 0 1 0-1.19-11.14 5.6 5.6 0 1 0 1.19 11.14zM1263.26 549.17a5.6 5.6 0 1 0-1.18-11.14 5.6 5.6 0 1 0 1.18 11.14zM1261.57 533.26a5.6 5.6 0 1 0-1.19-11.14 5.6 5.6 0 1 0 1.19 11.14zM1259.87 517.35a5.6 5.6 0 1 0-1.19-11.14 5.6 5.6 0 1 0 1.19 11.14z" fill="#d3b714" style="--darkreader-inline-fill: #a99210;" data-darkreader-inline-fill=""></path></g><defs><mask id="SvgjsMask13148"><rect width="2560" height="1440" fill="#ffffff" style="--darkreader-inline-fill: #cdd6f4;" data-darkreader-inline-fill=""></rect></mask><pattern x="0" y="0" width="7.18" height="7.18" patternUnits="userSpaceOnUse" id="SvgjsPattern13150"><path d="M0 7.18L3.59 0L7.18 7.18" stroke="#e73635" fill="none" style="--darkreader-inline-stroke: #e94443;" data-darkreader-inline-stroke=""></path></pattern><clipPath id="SvgjsClipPath13149"><circle r="165.14" cx="2013.18" cy="679.58"></circle></clipPath><pattern x="0" y="0" width="6" height="6" patternUnits="userSpaceOnUse" id="SvgjsPattern13152"><path d="M3 1L3 5M1 3L5 3" stroke="#d3b714" fill="none" stroke-width="1.07" style="--darkreader-inline-stroke: #edd33c;" data-darkreader-inline-stroke=""></path></pattern><clipPath id="SvgjsClipPath13151"><circle r="108" cx="2210.15" cy="553.73"></circle></clipPath><pattern x="0" y="0" width="10.74" height="10.74" patternUnits="userSpaceOnUse" id="SvgjsPattern13154"><path d="M5.37 1L5.37 9.74M1 5.37L9.74 5.37" stroke="#d3b714" fill="none" stroke-width="1.96" style="--darkreader-inline-stroke: #edd33c;" data-darkreader-inline-stroke=""></path></pattern><clipPath id="SvgjsClipPath13153"><circle r="171.84" cx="2527.69" cy="1380.46"></circle></clipPath><pattern x="0" y="0" width="6" height="6" patternUnits="userSpaceOnUse" id="SvgjsPattern13156"><path d="M3 1L3 5M1 3L5 3" stroke="#d3b714" fill="none" stroke-width="1" style="--darkreader-inline-stroke: #edd33c;" data-darkreader-inline-stroke=""></path></pattern><clipPath id="SvgjsClipPath13155"><circle r="183" cx="1806.95" cy="1016.89"></circle></clipPath><pattern x="0" y="0" width="11.56" height="11.56" patternUnits="userSpaceOnUse" id="SvgjsPattern13158"><path d="M0 11.56L5.78 0L11.56 11.56" stroke="#037b0b" fill="none" style="--darkreader-inline-stroke: #72fc7b;" data-darkreader-inline-stroke=""></path></pattern><clipPath id="SvgjsClipPath13157"><circle r="98.26" cx="2553.07" cy="545.37"></circle></clipPath></defs></svg>