<?xml version="1.0" encoding="UTF-8"?>
<svg version="1.1" xmlns="http://www.w3.org/2000/svg" width="400" height="400">
<path d="M0 0 C1.28961639 -0.01191879 1.28961639 -0.01191879 2.60528564 -0.02407837 C19.30016879 -0.14243806 35.65476102 1.66360471 51.8125 6 C52.75818848 6.25160889 53.70387695 6.50321777 54.67822266 6.76245117 C85.79481202 15.41683315 114.09607499 32.16632061 137.4375 54.375 C137.96988281 54.88015137 138.50226563 55.38530273 139.05078125 55.90576172 C157.49068608 73.51836833 172.0038819 94.05850701 182.4375 117.375 C182.93975098 118.49696777 182.93975098 118.49696777 183.45214844 119.64160156 C189.25479892 132.84331248 193.3686304 146.2925473 196.4375 160.375 C196.61684082 161.18356445 196.79618164 161.99212891 196.98095703 162.82519531 C205.48961567 203.29835806 198.87236689 248.28008271 181.4375 285.375 C180.972229 286.39762939 180.972229 286.39762939 180.49755859 287.44091797 C173.58019348 302.60351892 164.3317619 316.76176644 153.4375 329.375 C152.7671875 330.15488281 152.096875 330.93476563 151.40625 331.73828125 C124.22560811 362.61194514 91.03235091 383.48929757 51.375 394.6875 C50.57473389 394.91791992 49.77446777 395.14833984 48.94995117 395.38574219 C33.71791313 399.46198461 18.229612 400.88250876 2.51025391 400.76611328 C-0.06271307 400.74999867 -2.63411034 400.76610481 -5.20703125 400.78515625 C-21.09095045 400.80617321 -36.71030014 398.84133429 -52.0625 394.6875 C-53.01624512 394.43186279 -53.96999023 394.17622559 -54.95263672 393.9128418 C-83.03628948 386.1040688 -108.89671149 371.958863 -130.79296875 352.78515625 C-132.58218653 351.22810778 -134.40645823 349.71006322 -136.26953125 348.2421875 C-139.12372575 345.91798823 -141.23758557 343.22302017 -143.5625 340.375 C-144.67625 339.26125 -144.67625 339.26125 -145.8125 338.125 C-182.21912535 301.71837465 -199.91956903 251.21376039 -200.0625 200.375 C-199.91850454 149.15761574 -182.04267315 103.8151988 -148.5625 65.375 C-147.9128125 64.6015625 -147.263125 63.828125 -146.59375 63.03125 C-143.21070608 59.03310719 -139.6401566 55.52581464 -135.640625 52.14453125 C-134.25156962 50.96174537 -132.88655863 49.75014722 -131.546875 48.51171875 C-106.77633139 25.6219016 -74.27582033 10.61823971 -41.5625 3.375 C-40.82660645 3.20838867 -40.09071289 3.04177734 -39.33251953 2.87011719 C-26.35365626 0.09201351 -13.21259074 0.0639045 0 0 Z " fill="#24273A" transform="translate(199.5625,-0.375)"/>
<path d="M0 0 C1.28961639 -0.01191879 1.28961639 -0.01191879 2.60528564 -0.02407837 C19.30016879 -0.14243806 35.65476102 1.66360471 51.8125 6 C52.75818848 6.25160889 53.70387695 6.50321777 54.67822266 6.76245117 C85.79481202 15.41683315 114.09607499 32.16632061 137.4375 54.375 C137.96988281 54.88015137 138.50226563 55.38530273 139.05078125 55.90576172 C157.49068608 73.51836833 172.0038819 94.05850701 182.4375 117.375 C182.93975098 118.49696777 182.93975098 118.49696777 183.45214844 119.64160156 C189.25479892 132.84331248 193.3686304 146.2925473 196.4375 160.375 C196.61684082 161.18356445 196.79618164 161.99212891 196.98095703 162.82519531 C205.48961567 203.29835806 198.87236689 248.28008271 181.4375 285.375 C180.972229 286.39762939 180.972229 286.39762939 180.49755859 287.44091797 C173.58019348 302.60351892 164.3317619 316.76176644 153.4375 329.375 C152.7671875 330.15488281 152.096875 330.93476563 151.40625 331.73828125 C134.79047682 350.61163231 114.72831457 369.07007125 91.4375 379.375 C90.4475 379.375 89.4575 379.375 88.4375 379.375 C88.36756836 378.40079102 88.29763672 377.42658203 88.22558594 376.42285156 C86.92773197 358.54913773 85.50770814 340.78254646 82.70800781 323.07128906 C82.25304374 320.17566004 81.82664101 317.28014839 81.4375 314.375 C81.33969238 313.65892578 81.24188477 312.94285156 81.14111328 312.20507812 C80.99609375 310.3515625 80.99609375 310.3515625 81.4375 307.375 C83.640625 305.328125 83.640625 305.328125 86.6875 303.625 C93.77660954 299.29647312 99.55035056 294.2092952 105.4375 288.375 C106.30375 287.52164062 107.17 286.66828125 108.0625 285.7890625 C123.22086502 270.0148889 130.68246914 251.37029009 135.4375 230.375 C135.6125708 229.74529297 135.7876416 229.11558594 135.96801758 228.46679688 C141.3831798 204.33933461 132.86939607 177.02587591 120.171875 156.66015625 C115.08965093 148.87671957 109.0000736 141.9375736 102.4375 135.375 C102.4609375 132.453125 102.4609375 132.453125 102.8125 128.625 C105.1669138 98.25686491 105.1669138 98.25686491 94.4375 70.375 C90.08762588 67.47508392 86.54595351 67.71693892 81.4375 68.375 C76.92457835 69.67476606 72.708193 71.43095573 68.4375 73.375 C67.49648438 73.7978125 66.55546875 74.220625 65.5859375 74.65625 C56.05075683 79.38262198 48.15899299 86.6332136 41.8125 95.125 C39.1287977 98.26345853 39.1287977 98.26345853 36.35546875 98.7109375 C33.65037922 98.46869068 31.0919262 97.95112712 28.4375 97.375 C4.43590945 93.32126842 -21.35503566 93.46061805 -44.67822266 100.78588867 C-48.39005184 101.92905801 -50.8696723 102.68316566 -54.5625 101.375 C-56.4296875 99.625 -56.4296875 99.625 -58.4375 97.375 C-72.96874536 82.39039888 -92.95149166 75.22989799 -113.56640625 74.87890625 C-117.22860614 75.48529398 -118.35489385 76.43667107 -120.5625 79.375 C-128.05066684 96.96512776 -120.82465957 122.59608906 -117.4296875 140.31640625 C-116.0732017 147.93036312 -116.46284405 151.93409764 -120.625 158.5625 C-136.5541561 185.58444459 -141.79260893 221.1583432 -134.5625 251.8125 C-130.88732061 265.66935747 -124.67104771 278.29023879 -115.5625 289.375 C-114.65951172 290.52162109 -114.65951172 290.52162109 -113.73828125 291.69140625 C-106.31948853 300.63439538 -96.70052966 307.65442677 -86.390625 312.92578125 C-84.5625 314.375 -84.5625 314.375 -83.84130859 316.57397461 C-83.49694465 320.03359589 -84.21116076 322.33304817 -85.2734375 325.640625 C-87.72365906 333.71813959 -89.48279897 341.86303285 -91.1875 350.125 C-91.48912655 351.5665019 -91.79120853 353.00790859 -92.09375 354.44921875 C-93.62251696 361.74991218 -95.11879173 369.05696879 -96.5625 376.375 C-109.80842609 369.72500445 -121.24746823 360.87357182 -132.5625 351.375 C-133.47128906 350.65183594 -133.47128906 350.65183594 -134.3984375 349.9140625 C-137.9560395 347.07881623 -140.69993323 343.8981591 -143.5625 340.375 C-144.67625 339.26125 -144.67625 339.26125 -145.8125 338.125 C-182.21912535 301.71837465 -199.91956903 251.21376039 -200.0625 200.375 C-199.91850454 149.15761574 -182.04267315 103.8151988 -148.5625 65.375 C-147.9128125 64.6015625 -147.263125 63.828125 -146.59375 63.03125 C-143.21070608 59.03310719 -139.6401566 55.52581464 -135.640625 52.14453125 C-134.25156962 50.96174537 -132.88655863 49.75014722 -131.546875 48.51171875 C-106.77633139 25.6219016 -74.27582033 10.61823971 -41.5625 3.375 C-40.82660645 3.20838867 -40.09071289 3.04177734 -39.33251953 2.87011719 C-26.35365626 0.09201351 -13.21259074 0.0639045 0 0 Z " fill="#F4A87F" transform="translate(199.5625,-0.375)"/>
<path d="M0 0 C-4.32078363 5.16478548 -8.85348164 9.99202143 -13.62597656 14.73950195 C-14.3649115 15.47858292 -15.10384644 16.21766388 -15.86517334 16.97914124 C-18.28795896 19.40123488 -20.71425895 21.81977483 -23.140625 24.23828125 C-24.83141592 25.92720508 -26.5219847 27.61635133 -28.21234131 29.30570984 C-32.64805773 33.73762094 -37.08676884 38.16652079 -41.52612305 42.5947876 C-46.05308493 47.11150427 -50.57720464 51.63106579 -55.1015625 56.15039062 C-63.59306873 64.63166706 -72.08733989 73.11016772 -80.58374405 81.58653736 C-81.72315366 82.72369969 -82.86171347 83.86171347 -84 85 C-85.50626953 84.29423828 -85.50626953 84.29423828 -87.04296875 83.57421875 C-99.59285104 77.80868242 -112.89935756 72.66521305 -127 75 C-131.09669711 78.11899797 -131.90009282 80.92694673 -132.6796875 85.82421875 C-134.52112077 104.08135589 -131.29736913 122.03731009 -127.8671875 139.94140625 C-126.5107017 147.55536312 -126.90034405 151.55909764 -131.0625 158.1875 C-146.9916561 185.20944459 -152.23010893 220.7833432 -145 251.4375 C-141.32482061 265.29435747 -135.10854771 277.91523879 -126 289 C-125.09701172 290.14662109 -125.09701172 290.14662109 -124.17578125 291.31640625 C-116.75698853 300.25939538 -107.13802966 307.27942677 -96.828125 312.55078125 C-95 314 -95 314 -94.27880859 316.19897461 C-93.93444465 319.65859589 -94.64866076 321.95804817 -95.7109375 325.265625 C-98.16115906 333.34313959 -99.92029897 341.48803285 -101.625 349.75 C-101.92662655 351.1915019 -102.22870853 352.63290859 -102.53125 354.07421875 C-104.06001696 361.37491218 -105.55629173 368.68196879 -107 376 C-120.24592609 369.35000445 -131.68496823 360.49857182 -143 351 C-143.90878906 350.27683594 -143.90878906 350.27683594 -144.8359375 349.5390625 C-148.3935395 346.70381623 -151.13743323 343.5231591 -154 340 C-155.11375 338.88625 -155.11375 338.88625 -156.25 337.75 C-192.65662535 301.34337465 -210.35706903 250.83876039 -210.5 200 C-210.35600454 148.78261574 -192.48017315 103.4401988 -159 65 C-158.3503125 64.2265625 -157.700625 63.453125 -157.03125 62.65625 C-153.64820608 58.65810719 -150.0776566 55.15081464 -146.078125 51.76953125 C-144.68906962 50.58674537 -143.32405863 49.37514722 -141.984375 48.13671875 C-102.79234659 11.92038139 -51.98793763 -0.98509842 0 0 Z " fill="#EC8795" transform="translate(210,0)"/>
<path d="M0 0 C11.3587923 23.61129669 19.0412887 50.07695165 19.203125 76.453125 C19.21378242 77.6138855 19.21378242 77.6138855 19.22465515 78.7980957 C19.45823374 111.72752207 15.16937911 141.85282715 1 172 C0.68981934 172.68175293 0.37963867 173.36350586 0.06005859 174.06591797 C-6.85730652 189.22851892 -16.1057381 203.38676644 -27 216 C-27.6703125 216.77988281 -28.340625 217.55976563 -29.03125 218.36328125 C-45.64702318 237.23663231 -65.70918543 255.69507125 -89 266 C-89.99 266 -90.98 266 -92 266 C-92.06993164 265.02579102 -92.13986328 264.05158203 -92.21191406 263.04785156 C-93.50976803 245.17413773 -94.92979186 227.40754646 -97.72949219 209.69628906 C-98.18445626 206.80066004 -98.61085899 203.90514839 -99 201 C-99.09780762 200.28392578 -99.19561523 199.56785156 -99.29638672 198.83007812 C-99.44140625 196.9765625 -99.44140625 196.9765625 -99 194 C-96.796875 191.953125 -96.796875 191.953125 -93.75 190.25 C-86.66089046 185.92147312 -80.88714944 180.8342952 -75 175 C-73.700625 173.71996094 -73.700625 173.71996094 -72.375 172.4140625 C-57.21663498 156.6398889 -49.75503086 137.99529009 -45 117 C-44.8249292 116.37029297 -44.6498584 115.74058594 -44.46948242 115.09179688 C-40.44462848 97.15890632 -44.19738303 72.98969192 -53.1796875 56.98828125 C-54.24658581 54.40232296 -54.00730196 53.6063592 -53 51 C-50.95704651 48.58282471 -50.95704651 48.58282471 -48.23657227 45.86425781 C-47.74220673 45.36624161 -47.24784119 44.8682254 -46.73849487 44.3551178 C-45.10510837 42.71363559 -43.46112731 41.08324413 -41.81640625 39.453125 C-40.67868306 38.31592041 -39.5414778 37.17819746 -38.4047699 36.03997803 C-36.02282706 33.65812486 -33.63580294 31.28152238 -31.24487305 28.90869141 C-28.17498812 25.86153202 -25.11634023 22.80338231 -22.06117344 19.74147415 C-19.71532607 17.39229205 -17.36453225 15.04811306 -15.01209831 12.70552826 C-13.88200274 11.57929064 -12.75326308 10.45169079 -11.62588692 9.32273102 C-10.05307136 7.7495462 -8.47394263 6.18299596 -6.89282227 4.61816406 C-5.99427017 3.72421936 -5.09571808 2.83027466 -4.16993713 1.90924072 C-2 0 -2 0 0 0 Z " fill="#C59FF5" transform="translate(380,113)"/>
<path d="M0 0 C0.99 0.33 1.98 0.66 3 1 C3.69385301 3.51865587 4.21767893 5.93840994 4.6875 8.5 C7.64384463 22.55010252 13.88473142 34.90705973 23 46 C23.90298828 47.14662109 23.90298828 47.14662109 24.82421875 48.31640625 C32.24301147 57.25939538 41.86197034 64.27942677 52.171875 69.55078125 C54 71 54 71 54.72119141 73.19897461 C55.06555535 76.65859589 54.35133924 78.95804817 53.2890625 82.265625 C50.83884094 90.34313959 49.07970103 98.48803285 47.375 106.75 C47.07337345 108.1915019 46.77129147 109.63290859 46.46875 111.07421875 C44.93998304 118.37491218 43.44370827 125.68196879 42 133 C28.75407391 126.35000445 17.31503177 117.49857182 6 108 C5.39414063 107.51789063 4.78828125 107.03578125 4.1640625 106.5390625 C0.6064605 103.70381623 -2.13743323 100.5231591 -5 97 C-5.7425 96.2575 -6.485 95.515 -7.25 94.75 C-22.85822599 79.14177401 -35.59687154 60.45745652 -44 40 C-42.68 40 -41.36 40 -40 40 C-37.89278836 38.474156 -37.89278836 38.474156 -35.87402344 36.328125 C-35.07349548 35.52729492 -34.27296753 34.72646484 -33.44818115 33.90136719 C-32.59387512 33.02641602 -31.73956909 32.15146484 -30.859375 31.25 C-29.97719299 30.3621582 -29.09501099 29.47431641 -28.18609619 28.55957031 C-25.84435753 26.19921638 -23.51166416 23.83059315 -21.18286133 21.45751953 C-18.80366837 19.03738289 -16.41308821 16.62855325 -14.0234375 14.21875 C-9.33837613 9.48953404 -4.66491096 4.74908894 0 0 Z " fill="#ECD29E" transform="translate(61,243)"/>
<path d="M0 0 C3 2 3 2 3.73046875 4.390625 C3.88128906 5.33421875 4.03210938 6.2778125 4.1875 7.25 C4.34605469 8.18328125 4.50460938 9.1165625 4.66796875 10.078125 C5.43633363 16.8397359 4.55170422 20.43173303 0.9375 26.1875 C-9.62397875 44.10380968 -15.34038634 64.10234004 -14.95703125 84.93359375 C-14.94461899 85.71489655 -14.93220673 86.49619934 -14.91941833 87.30117798 C-14.84659011 91.22575139 -14.71639951 95.1372697 -14.50170898 99.05664062 C-14.45340512 100.51559681 -14.40592478 101.97458055 -14.359375 103.43359375 C-14.29202148 104.72322021 -14.22466797 106.01284668 -14.15527344 107.34155273 C-15.22982216 111.99534251 -17.06342761 113.30872306 -20.71832275 116.19108582 C-23.01221056 118.00968054 -25.05351022 119.93704521 -27.12109375 122.00756836 C-27.82121582 122.70776596 -28.52133789 123.40796356 -29.24267578 124.12937927 C-30.32911377 125.22355919 -30.32911377 125.22355919 -31.4375 126.33984375 C-32.58581299 127.49027916 -32.58581299 127.49027916 -33.75732422 128.66395569 C-36.17393197 131.08610881 -38.58701726 133.51173612 -41 135.9375 C-42.64950686 137.59202893 -44.29924429 139.24632802 -45.94921875 140.90039062 C-49.96881371 144.93094202 -53.98553169 148.96434272 -58 153 C-58.495 152.01 -58.495 152.01 -59 151 C-59.99 150.67 -60.98 150.34 -62 150 C-63.08740234 147.92480469 -63.08740234 147.92480469 -64.0859375 145.171875 C-64.45710693 144.15464355 -64.82827637 143.13741211 -65.21069336 142.08935547 C-65.78702515 140.43637451 -65.78702515 140.43637451 -66.375 138.75 C-66.77275635 137.62352051 -67.1705127 136.49704102 -67.58032227 135.33642578 C-72.74342618 120.37258598 -76.82218569 104.83896563 -78 89 C-78.2075441 87.95832924 -78.2075441 87.95832924 -78.41928101 86.89561462 C-78.97924605 82.45251377 -78.60599744 79.87224413 -76.01475525 76.14253235 C-73.13206825 72.85843392 -69.96565893 69.8674127 -66.80078125 66.859375 C-65.64465564 65.72447677 -64.49081419 64.58724742 -63.3391571 63.44781494 C-60.30957658 60.46193243 -57.25166739 57.50685038 -54.18621826 54.55786133 C-50.47620398 50.97824561 -46.80038416 47.36359587 -43.11948681 43.75409317 C-40.2529299 40.94443109 -37.38173729 38.14013453 -34.4947052 35.35150146 C-33.96191956 34.83515137 -33.42913391 34.31880127 -32.88020325 33.7868042 C-31.44717433 32.39868308 -30.01139283 31.01340514 -28.57539368 29.62835693 C-25.86609805 26.86334434 -23.45367208 23.9920355 -21 21 C-19.3558909 19.31107702 -17.68601641 17.64708962 -16 16 C-14.66920061 14.67194665 -13.33990714 13.34238337 -12.01171875 12.01171875 C-8.0078125 8.0078125 -4.00390625 4.00390625 0 0 Z " fill="#F4A87F" transform="translate(78,132)"/>
<path d="M0 0 C7.67187813 15.94738119 12.69291838 32.06614727 16.3125 49.375 C16.47202148 50.12185059 16.63154297 50.86870117 16.79589844 51.63818359 C17.08980194 53.13981638 17.34327018 54.64995185 17.55497742 56.1653595 C17.96823669 59.08112551 17.96823669 59.08112551 18.81141663 62.20747375 C19.71097851 67.12476561 20.40362009 71.45321551 17.90544319 75.98600769 C13.96608243 81.30636937 9.06168264 85.74687678 4.2578125 90.26953125 C2.7306559 91.7642637 1.20709353 93.26267638 -0.3130188 94.76457214 C-4.30625682 98.69134419 -8.34470644 102.56810356 -12.39526367 106.43560791 C-16.52136361 110.39058255 -20.60514455 114.3887115 -24.69140625 118.38476562 C-29.27843003 122.86765638 -33.86932461 127.34575442 -38.49337769 131.79048157 C-39.19294586 132.4638858 -39.89251404 133.13729004 -40.61328125 133.83110046 C-41.92301582 135.09050411 -43.23484421 136.34773513 -44.54910278 137.60241699 C-47.66901302 140.49372837 -47.66901302 140.49372837 -50 144 C-50.66 144 -51.32 144 -52 144 C-51.07731572 138.73344253 -49.45991602 133.69522885 -47.90429688 128.58984375 C-41.18735075 106.20002333 -41.73505132 80.72852605 -51.875 59.3125 C-52.30554688 58.54550781 -52.73609375 57.77851563 -53.1796875 56.98828125 C-54.24658581 54.40232296 -54.00730196 53.6063592 -53 51 C-50.95704651 48.58282471 -50.95704651 48.58282471 -48.23657227 45.86425781 C-47.74220673 45.36624161 -47.24784119 44.8682254 -46.73849487 44.3551178 C-45.10510837 42.71363559 -43.46112731 41.08324413 -41.81640625 39.453125 C-40.67868306 38.31592041 -39.5414778 37.17819746 -38.4047699 36.03997803 C-36.02282706 33.65812486 -33.63580294 31.28152238 -31.24487305 28.90869141 C-28.17498812 25.86153202 -25.11634023 22.80338231 -22.06117344 19.74147415 C-19.71532607 17.39229205 -17.36453225 15.04811306 -15.01209831 12.70552826 C-13.88200274 11.57929064 -12.75326308 10.45169079 -11.62588692 9.32273102 C-10.05307136 7.7495462 -8.47394263 6.18299596 -6.89282227 4.61816406 C-5.99427017 3.72421936 -5.09571808 2.83027466 -4.16993713 1.90924072 C-2 0 -2 0 0 0 Z " fill="#7DC3E3" transform="translate(380,113)"/>
<path d="M0 0 C1.11969295 0.95134615 2.23819709 1.90409158 3.35620117 2.85742188 C3.97919601 3.38783081 4.60219086 3.91823975 5.24406433 4.46472168 C17.31391405 15.01782959 26.08384483 29.47007376 33.98339844 43.25732422 C34.69159562 44.47132793 35.42628291 45.67009981 36.18066406 46.85595703 C39.02670212 51.43961473 39.02670212 51.43961473 38.91041565 53.88006592 C37.57704017 56.98487648 35.50688624 58.85099486 33.11303711 61.22753906 C32.35203957 61.98919373 32.35203957 61.98919373 31.57566833 62.76623535 C29.89990733 64.43990925 28.21377731 66.10271128 26.52734375 67.765625 C25.36226727 68.92510527 24.19785214 70.08525042 23.03407288 71.24603271 C19.97133103 74.29732787 16.89968669 77.33950625 13.82611084 80.37988281 C10.69050356 83.4847856 7.56338633 86.5982131 4.43554688 89.7109375 C-1.70135102 95.81567432 -7.84767857 101.91080744 -14 108 C-16.245343 105.04500519 -18.24577503 102.0389509 -20.1875 98.875 C-24.49983256 92.06078674 -28.99390489 85.1646006 -35.5625 80.375 C-37.7962971 78.177329 -37.99298325 77.14773114 -38.14453125 73.95703125 C-38.006253 72.02313978 -37.8638583 70.08852496 -37.64697266 68.16186523 C-37.1345402 63.60060267 -37.00111174 59.23224746 -37.19140625 54.640625 C-37.24868896 52.98123901 -37.24868896 52.98123901 -37.30712891 51.28833008 C-37.39270317 49.08887917 -37.50733774 46.89032802 -37.65380859 44.6940918 C-37.87627591 37.21083279 -37.87627591 37.21083279 -35.71533203 34.22485352 C-33.91015625 32.6875 -33.91015625 32.6875 -31.70727539 31.07592773 C-28.12263069 28.32723679 -25.04552291 25.18222207 -21.875 21.97265625 C-20.57953203 20.67372345 -19.28395751 19.37489691 -17.98828125 18.07617188 C-16.65879835 16.73833672 -15.32937195 15.40044541 -14 14.0625 C-12.63955682 12.69703255 -11.27888169 11.33179614 -9.91796875 9.96679688 C-6.6092969 6.64719114 -3.30378678 3.32446727 0 0 Z " fill="#A5D995" transform="translate(340,58)"/>
<path d="M0 0 C20.90616427 9.96436661 39.67126474 22.41125304 56 39 C54.64218786 42.0308418 53.11581436 44.13650673 50.77539062 46.48339844 C50.12131226 47.14378113 49.46723389 47.80416382 48.79333496 48.48455811 C48.08809692 49.18574768 47.38285889 49.88693726 46.65625 50.609375 C45.93135376 51.33618469 45.20645752 52.06299438 44.45959473 52.81182861 C42.92880989 54.34397279 41.39550303 55.87360075 39.85986328 57.40087891 C37.5018923 59.74811631 35.15480454 62.10585778 32.80859375 64.46484375 C31.32095364 65.95116282 29.83269356 67.43686169 28.34375 68.921875 C27.63851196 69.6311615 26.93327393 70.340448 26.20666504 71.07122803 C25.22554749 72.0428891 25.22554749 72.0428891 24.22460938 73.03417969 C23.64884155 73.60835632 23.07307373 74.18253296 22.4798584 74.77410889 C21 76 21 76 19 76 C18.75878418 75.18378174 18.75878418 75.18378174 18.51269531 74.35107422 C17.7688414 71.85582106 17.00956966 69.36551205 16.25 66.875 C15.99734375 66.0190625 15.7446875 65.163125 15.484375 64.28125 C13.9297284 59.22864854 12.27834961 55.17123344 9 51 C4.30285753 48.65142876 -1.27751798 49.50664712 -6.1640625 50.90625 C-9.50894687 52.15160074 -12.75171653 53.52136249 -16 55 C-17.41152344 55.63421875 -17.41152344 55.63421875 -18.8515625 56.28125 C-28.38674317 61.00762198 -36.27850701 68.2582136 -42.625 76.75 C-45.3087023 79.88845853 -45.3087023 79.88845853 -48.08203125 80.3359375 C-50.78511795 80.09387003 -53.34271177 79.55601795 -56 79 C-58.86991638 78.60254129 -61.74743702 78.27439471 -64.625 77.9375 C-66.03407599 77.76087531 -67.44294996 77.58262721 -68.8515625 77.40234375 C-69.89054688 77.26957031 -70.92953125 77.13679688 -72 77 C-72 74 -72 74 -70.89396 72.53040314 C-70.3716804 72.01348656 -69.84940081 71.49656998 -69.31129456 70.96398926 C-68.41735489 70.06819908 -68.41735489 70.06819908 -67.50535583 69.15431213 C-66.84302444 68.50590866 -66.18069305 67.85750519 -65.49829102 67.18945312 C-64.8073938 66.50133041 -64.11649658 65.8132077 -63.40466309 65.10423279 C-61.11113308 62.82302411 -58.80740489 60.55238833 -56.50390625 58.28125 C-54.91367118 56.70168514 -53.32423907 55.12131151 -51.73558044 53.54016113 C-47.54505851 49.37246983 -43.34650453 45.21297578 -39.14538574 41.05596924 C-32.42223925 34.40288531 -25.70646533 27.74243529 -18.99979973 21.07273865 C-16.65035331 18.74004414 -14.2946016 16.41385045 -11.93836975 14.0880127 C-10.50235291 12.66245405 -9.06658393 11.23664568 -7.63110352 9.81054688 C-6.97079636 9.1621434 -6.3104892 8.51373993 -5.63017273 7.84568787 C-4.73200333 6.94989769 -4.73200333 6.94989769 -3.81568909 6.03601074 C-3.29303246 5.51909416 -2.77037584 5.00217758 -2.23188114 4.46959686 C-0.76249114 2.89929056 -0.76249114 2.89929056 0 0 Z " fill="#ECD39E" transform="translate(284,18)"/>
<path d="M0 0 C6.71690287 4.27439273 13.40122092 8.5519341 20 13 C19.3502328 17.14168438 18.5261866 21.19368566 17.546875 25.26953125 C17.25949463 26.47722168 16.97211426 27.68491211 16.67602539 28.92919922 C16.37043701 30.21068848 16.06484863 31.49217773 15.75 32.8125 C12.5119029 46.48063627 9.63907528 60.20272924 7 74 C0.76120781 70.69798103 -5.30882338 67.37234068 -11 63.1875 C-11.58394531 62.7644458 -12.16789062 62.3413916 -12.76953125 61.90551758 C-18.35656797 57.81794292 -23.69956469 53.45094985 -29 49 C-29.61746094 48.50628906 -30.23492187 48.01257813 -30.87109375 47.50390625 C-34.18806039 44.84867859 -36.25189383 42.43513271 -39 39 C-26.13 26.13 -13.26 13.26 0 0 Z " fill="#A5D895" transform="translate(96,302)"/>
<path d="M0 0 C9.25156913 1.74557908 18.44583137 5.33437353 26 11 C28.44237095 9.9145018 30.29062276 8.76291301 32.375 7.0625 C36.71363344 3.65357373 40.38563307 1.50461468 46 2 C48.94364975 7.74749554 49.43629023 12.34261793 49.3125 18.75 C49.31572266 19.59949219 49.31894531 20.44898438 49.32226562 21.32421875 C49.26775085 27.59837372 49.26775085 27.59837372 47 31 C39.34167083 30.70544888 33.65738822 27.62827658 27 24 C26.75636719 24.75023437 26.51273438 25.50046875 26.26171875 26.2734375 C23.701241 31.80660613 17.68094788 35.41897252 12.25 37.9375 C9.19486057 38.93629558 7.15826737 39.09131045 4 39 C3.00988557 36.81690366 2.03294432 34.62932734 1.0625 32.4375 C0.64581055 31.52387695 0.64581055 31.52387695 0.22070312 30.59179688 C-3.47579879 22.1744612 -4.37098427 12.30113917 -2.0625 3.375 C-1 1 -1 1 0 0 Z " fill="#E9969D" transform="translate(208,313)"/>
<path d="M0 0 C6.39531729 4.30454049 10.93941214 10.94920647 14 18 C14.125 21.25 14.125 21.25 14 24 C11.77734375 24.703125 11.77734375 24.703125 9 25 C6.75390625 23.671875 6.75390625 23.671875 4.5625 21.75 C-3.70014675 14.59593734 -11.83351442 13.53868707 -22.55859375 14.14453125 C-29.51252349 15.27253055 -36.44821032 19.53422796 -40.625 25.20703125 C-41.07875 25.79871094 -41.5325 26.39039063 -42 27 C-44.625 27.3125 -44.625 27.3125 -47 27 C-47.33 26.67 -47.66 26.34 -48 26 C-47.85101379 16.61386877 -43.9622478 9.97017941 -37.6875 3.125 C-27.31631328 -6.39129498 -12.08280633 -6.91746351 0 0 Z " fill="#C6CEF0" transform="translate(197,158)"/>
<path d="M0 0 C5.88292599 3.96994656 10.69147761 9.17535184 13 16 C12.62109375 18.26953125 12.62109375 18.26953125 12 20 C10.23046875 20.671875 10.23046875 20.671875 8 21 C6.17578125 19.890625 6.17578125 19.890625 4.3125 18.25 C-2.02416398 13.21346486 -8.44917161 11.42706348 -16.51953125 11.71484375 C-23.83834209 12.55621885 -29.34551061 15.3840903 -35 20 C-35.66 20.99 -36.32 21.98 -37 23 C-38.65 22.67 -40.3 22.34 -42 22 C-41.3621149 14.34537882 -39.0277322 8.59440136 -33.375 3.25 C-22.94150923 -5.20906394 -11.75280083 -6.40717206 0 0 Z " fill="#C3CCED" transform="translate(282,155)"/>
<path d="M0 0 C0.66 0 1.32 0 2 0 C1.457285 6.78393752 -0.50817996 10.75128435 -5.5625 15.3125 C-10.51056682 18.73808472 -14.995199 17.93012235 -20.7734375 17.64453125 C-24.69167593 18.07620159 -26.12001593 19.40207622 -29 22 C-34.33061809 23.7768727 -40.78891221 24.06457685 -46.16796875 22.28125 C-50.01482792 20.17524321 -53.22187073 17.36742941 -56 14 C-56 12.68 -56 11.36 -56 10 C-51.40574506 10.76570916 -51.40574506 10.76570916 -49.234375 12.01953125 C-46.24760064 13.33016126 -43.75180771 13.30131259 -40.5 13.3125 C-38.81390625 13.33763672 -38.81390625 13.33763672 -37.09375 13.36328125 C-33.72281228 12.96745144 -32.51700418 12.16805587 -30 10 C-29.34 10 -28.68 10 -28 10 C-27.6596875 9.0409375 -27.6596875 9.0409375 -27.3125 8.0625 C-26 6 -26 6 -23.5625 5.125 C-21 5 -21 5 -18 7 C-15.62244051 7.3168217 -15.62244051 7.3168217 -13.0625 7.25 C-12.20785156 7.25515625 -11.35320312 7.2603125 -10.47265625 7.265625 C-6.32410036 6.81996655 -4.49181777 5.60753959 -1.875 2.375 C-1.25625 1.59125 -0.6375 0.8075 0 0 Z " fill="#C1CAEB" transform="translate(264,222)"/>
<path d="M0 0 C2 3 2 3 2 5.1875 C-0.06407299 10.9927053 -4.61286227 16.97794713 -10 20 C-17.62136198 20.29312931 -23.62614197 15.24900078 -29.125 10.4375 C-31 8 -31 8 -30.9375 5.3125 C-30 3 -30 3 -28 1 C-19.10733552 -0.33138762 -8.93608661 -1.06021367 0 0 Z " fill="#C3CBEC" transform="translate(250,199)"/>
<path d="M0 0 C0.66 0.33 1.32 0.66 2 1 C-5.59 8.59 -13.18 16.18 -21 24 C-21.66 23.67 -22.32 23.34 -23 23 C-18.95002695 18.17118598 -14.90707384 13.94699417 -10 10 C-8.31288577 8.3540349 -6.6454378 6.68762851 -5 5 C-2.5 2.5 -2.5 2.5 0 0 Z " fill="#E59599" transform="translate(70,46)"/>
</svg>
