<?xml version="1.0" standalone="no"?>
<!DOCTYPE svg PUBLIC "-//W3C//DTD SVG 20010904//EN"
 "http://www.w3.org/TR/2001/REC-SVG-20010904/DTD/svg10.dtd">
<svg version="1.0" xmlns="http://www.w3.org/2000/svg"
 width="400.000000pt" height="400.000000pt" viewBox="0 0 400.000000 400.000000"
 preserveAspectRatio="xMidYMid meet">

<g transform="translate(0.000000,400.000000) scale(0.100000,-0.100000)"
fill="#000000" stroke="none">
<path d="M1 3048 c1 -621 5 -920 10 -858 44 476 264 927 615 1260 341 323 753
504 1239 543 22 2 -389 4 -912 5 l-953 2 1 -952z"/>
<path d="M2220 3985 c908 -110 1611 -795 1745 -1700 22 -147 22 -424 0 -570
-94 -625 -467 -1164 -1017 -1469 l-68 -38 0 74 c0 105 -17 279 -46 468 -29
188 -39 157 76 240 81 58 182 158 248 246 313 417 275 990 -92 1371 l-50 52
12 89 c7 49 12 123 12 164 0 149 -49 339 -102 395 -41 43 -152 23 -303 -55
-51 -26 -97 -63 -171 -137 -86 -86 -105 -100 -123 -94 -11 5 -71 16 -133 25
-214 31 -506 9 -692 -52 l-48 -16 -62 60 c-144 140 -324 220 -507 225 -58 2
-71 -1 -93 -22 -15 -14 -29 -43 -35 -73 -24 -111 -6 -352 42 -564 l23 -101
-23 -33 c-77 -114 -150 -307 -178 -475 -26 -152 -22 -352 9 -487 57 -247 199
-453 403 -587 43 -28 87 -57 97 -64 19 -13 19 -16 -12 -123 -34 -116 -77 -321
-88 -417 -4 -32 -10 -60 -14 -62 -10 -6 -201 120 -290 192 -89 72 -257 243
-321 328 -218 285 -361 633 -403 982 -13 109 -14 43 -15 -819 l-1 -938 2000 0
2000 0 0 2000 0 2000 -942 -1 c-818 -1 -929 -3 -838 -14z m577 -1531 c59 -29
107 -79 135 -142 18 -40 19 -46 4 -60 -14 -15 -18 -14 -43 6 -134 106 -304
107 -412 2 -45 -44 -53 -47 -70 -27 -15 19 9 97 44 143 55 72 160 118 245 108
25 -3 68 -16 97 -30z m-856 -26 c87 -51 175 -173 167 -231 -5 -34 -34 -32 -81
7 -73 59 -130 80 -222 80 -97 0 -153 -24 -228 -95 -42 -40 -53 -46 -70 -38
-15 9 -18 17 -12 47 18 98 93 197 180 239 43 21 61 24 136 21 70 -3 93 -9 130
-30z m565 -443 c15 -23 15 -27 -10 -68 -32 -56 -90 -107 -120 -107 -43 0 -186
107 -186 139 0 4 6 16 14 26 11 16 31 21 102 26 176 12 182 12 200 -16z m154
-231 c0 -29 -41 -93 -77 -121 -33 -25 -44 -28 -106 -26 -59 2 -74 -2 -101 -21
-80 -61 -182 -50 -263 27 -32 30 -44 67 -23 67 6 0 28 -9 50 -20 77 -39 188
-20 231 41 24 35 30 35 85 8 59 -28 108 -18 154 32 34 37 50 41 50 13z m-407
-953 l100 -50 40 34 c44 38 118 70 141 62 34 -13 48 -249 17 -280 -14 -14 -93
11 -149 47 l-35 22 -61 -62 c-49 -49 -74 -66 -117 -78 -53 -16 -54 -16 -71 5
-33 39 -58 145 -58 239 0 49 3 96 6 105 11 28 74 13 187 -44z"/>
</g>
</svg>
